<?xml version="1.0" encoding="UTF-8" standalone="no"?>
<svg
   height="24px"
   viewBox="0 -960 960 960"
   width="24px"
   fill="undefined"
   version="1.1"
   id="svg1"
   sodipodi:docname="other_houses_24dp_UNDEFINED_FILL0_wght400_GRAD0_opsz24.svg"
   inkscape:version="1.3.2 (091e20e, 2023-11-25)"
   xmlns:inkscape="http://www.inkscape.org/namespaces/inkscape"
   xmlns:sodipodi="http://sodipodi.sourceforge.net/DTD/sodipodi-0.dtd"
   xmlns="http://www.w3.org/2000/svg"
   xmlns:svg="http://www.w3.org/2000/svg">
  <defs
     id="defs1" />
  <sodipodi:namedview
     id="namedview1"
     pagecolor="#ffffff"
     bordercolor="#000000"
     borderopacity="0.25"
     inkscape:showpageshadow="2"
     inkscape:pageopacity="0.0"
     inkscape:pagecheckerboard="0"
     inkscape:deskcolor="#d1d1d1"
     inkscape:zoom="9.8333333"
     inkscape:cx="11.949153"
     inkscape:cy="12"
     inkscape:window-width="1312"
     inkscape:window-height="449"
     inkscape:window-x="0"
     inkscape:window-y="38"
     inkscape:window-maximized="0"
     inkscape:current-layer="svg1" />
  <path
     d="M160-120v-375l-72 55-48-64 440-336 440 336-48 63-72-54v375H160Zm80-80h480v-356L480-739 240-556v356Zm0 0h480-480Zm80-160q-17 0-28.5-11.5T280-400q0-17 11.5-28.5T320-440q17 0 28.5 11.5T360-400q0 17-11.5 28.5T320-360Zm160 0q-17 0-28.5-11.5T440-400q0-17 11.5-28.5T480-440q17 0 28.5 11.5T520-400q0 17-11.5 28.5T480-360Zm160 0q-17 0-28.5-11.5T600-400q0-17 11.5-28.5T640-440q17 0 28.5 11.5T680-400q0 17-11.5 28.5T640-360Z"
     id="path1"
     style="fill:#000000" />
</svg>
